<svg xmlns="http://www.w3.org/2000/svg" xmlns:xlink="http://www.w3.org/1999/xlink" width="71" zoomAndPan="magnify" viewBox="0 0 53.25 30.000001" height="40" preserveAspectRatio="xMidYMid meet" version="1.2"><defs><clipPath id="1d206e5557"><path d="M 0.496094 12 L 6 12 L 6 18 L 0.496094 18 Z M 0.496094 12 "/></clipPath></defs><g id="ceca5fd0c4"><g style="fill:#000000;fill-opacity:1;"><g transform="translate(17.957467, 19.06332)"><path style="stroke:none" d="M 5.71875 0.109375 C 4.769531 0.109375 3.894531 -0.113281 3.09375 -0.5625 C 2.300781 -1.007812 1.671875 -1.628906 1.203125 -2.421875 C 0.742188 -3.210938 0.515625 -4.109375 0.515625 -5.109375 C 0.515625 -6.097656 0.742188 -6.984375 1.203125 -7.765625 C 1.671875 -8.554688 2.300781 -9.175781 3.09375 -9.625 C 3.894531 -10.070312 4.769531 -10.296875 5.71875 -10.296875 C 6.675781 -10.296875 7.550781 -10.070312 8.34375 -9.625 C 9.132812 -9.175781 9.757812 -8.554688 10.21875 -7.765625 C 10.675781 -6.984375 10.90625 -6.097656 10.90625 -5.109375 C 10.90625 -4.109375 10.675781 -3.210938 10.21875 -2.421875 C 9.757812 -1.628906 9.128906 -1.007812 8.328125 -0.5625 C 7.535156 -0.113281 6.664062 0.109375 5.71875 0.109375 Z M 5.71875 -1.71875 C 6.332031 -1.71875 6.867188 -1.851562 7.328125 -2.125 C 7.796875 -2.40625 8.160156 -2.800781 8.421875 -3.3125 C 8.679688 -3.832031 8.8125 -4.429688 8.8125 -5.109375 C 8.8125 -5.785156 8.679688 -6.378906 8.421875 -6.890625 C 8.160156 -7.398438 7.796875 -7.789062 7.328125 -8.0625 C 6.867188 -8.332031 6.332031 -8.46875 5.71875 -8.46875 C 5.101562 -8.46875 4.5625 -8.332031 4.09375 -8.0625 C 3.625 -7.789062 3.257812 -7.398438 3 -6.890625 C 2.738281 -6.378906 2.609375 -5.785156 2.609375 -5.109375 C 2.609375 -4.429688 2.738281 -3.832031 3 -3.3125 C 3.257812 -2.800781 3.625 -2.40625 4.09375 -2.125 C 4.5625 -1.851562 5.101562 -1.71875 5.71875 -1.71875 Z M 5.71875 -1.71875 "/></g></g><g clip-rule="nonzero" clip-path="url(#1d206e5557)"><g style="fill:#000000;fill-opacity:1;"><g transform="translate(0.394109, 17.547591)"><path style="stroke:none" d="M 0.46875 -2.65625 C 0.46875 -3.195312 0.578125 -3.671875 0.796875 -4.078125 C 1.015625 -4.492188 1.316406 -4.8125 1.703125 -5.03125 C 2.097656 -5.257812 2.539062 -5.375 3.03125 -5.375 C 3.6875 -5.375 4.222656 -5.210938 4.640625 -4.890625 C 5.066406 -4.566406 5.34375 -4.128906 5.46875 -3.578125 L 4.75 -3.578125 C 4.65625 -3.953125 4.457031 -4.25 4.15625 -4.46875 C 3.851562 -4.6875 3.476562 -4.796875 3.03125 -4.796875 C 2.675781 -4.796875 2.359375 -4.710938 2.078125 -4.546875 C 1.796875 -4.390625 1.570312 -4.148438 1.40625 -3.828125 C 1.238281 -3.503906 1.15625 -3.113281 1.15625 -2.65625 C 1.15625 -2.1875 1.238281 -1.789062 1.40625 -1.46875 C 1.570312 -1.144531 1.796875 -0.898438 2.078125 -0.734375 C 2.359375 -0.578125 2.675781 -0.5 3.03125 -0.5 C 3.476562 -0.5 3.851562 -0.601562 4.15625 -0.8125 C 4.457031 -1.03125 4.65625 -1.335938 4.75 -1.734375 L 5.46875 -1.734375 C 5.34375 -1.179688 5.066406 -0.738281 4.640625 -0.40625 C 4.210938 -0.0820312 3.675781 0.078125 3.03125 0.078125 C 2.539062 0.078125 2.097656 -0.03125 1.703125 -0.25 C 1.316406 -0.476562 1.015625 -0.796875 0.796875 -1.203125 C 0.578125 -1.617188 0.46875 -2.101562 0.46875 -2.65625 Z M 0.46875 -2.65625 "/></g></g></g><g style="fill:#000000;fill-opacity:1;"><g transform="translate(6.136915, 17.547591)"><path style="stroke:none" d="M 3.09375 0.078125 C 2.59375 0.078125 2.144531 -0.03125 1.75 -0.25 C 1.351562 -0.476562 1.039062 -0.796875 0.8125 -1.203125 C 0.582031 -1.617188 0.46875 -2.101562 0.46875 -2.65625 C 0.46875 -3.195312 0.582031 -3.671875 0.8125 -4.078125 C 1.050781 -4.492188 1.367188 -4.8125 1.765625 -5.03125 C 2.171875 -5.257812 2.617188 -5.375 3.109375 -5.375 C 3.609375 -5.375 4.0625 -5.257812 4.46875 -5.03125 C 4.875 -4.8125 5.191406 -4.492188 5.421875 -4.078125 C 5.648438 -3.671875 5.765625 -3.195312 5.765625 -2.65625 C 5.765625 -2.101562 5.644531 -1.617188 5.40625 -1.203125 C 5.175781 -0.796875 4.859375 -0.476562 4.453125 -0.25 C 4.046875 -0.03125 3.59375 0.078125 3.09375 0.078125 Z M 3.09375 -0.515625 C 3.445312 -0.515625 3.769531 -0.59375 4.0625 -0.75 C 4.363281 -0.90625 4.601562 -1.144531 4.78125 -1.46875 C 4.96875 -1.789062 5.0625 -2.1875 5.0625 -2.65625 C 5.0625 -3.113281 4.96875 -3.503906 4.78125 -3.828125 C 4.601562 -4.148438 4.363281 -4.390625 4.0625 -4.546875 C 3.769531 -4.703125 3.453125 -4.78125 3.109375 -4.78125 C 2.753906 -4.78125 2.425781 -4.703125 2.125 -4.546875 C 1.832031 -4.390625 1.597656 -4.148438 1.421875 -3.828125 C 1.242188 -3.503906 1.15625 -3.113281 1.15625 -2.65625 C 1.15625 -2.1875 1.242188 -1.789062 1.421875 -1.46875 C 1.597656 -1.144531 1.832031 -0.90625 2.125 -0.75 C 2.425781 -0.59375 2.75 -0.515625 3.09375 -0.515625 Z M 3.09375 -0.515625 "/></g></g><g style="fill:#000000;fill-opacity:1;"><g transform="translate(14.042146, 16.447487)"><path style="stroke:none" d="M 1.734375 -1.65625 L 1.734375 -1.40625 L 0.125 -1.40625 L 0.125 -1.65625 Z M 1.734375 -1.65625 "/></g></g><g style="fill:#000000;fill-opacity:1;"><g transform="translate(29.382277, 19.06332)"><path style="stroke:none" d="M 4.703125 -6.390625 L 3.28125 -6.390625 L 3.28125 0 L 1.21875 0 L 1.21875 -6.390625 L 0.3125 -6.390625 L 0.3125 -8.0625 L 1.21875 -8.0625 L 1.21875 -8.46875 C 1.21875 -9.457031 1.5 -10.179688 2.0625 -10.640625 C 2.625 -11.109375 3.472656 -11.328125 4.609375 -11.296875 L 4.609375 -9.59375 C 4.117188 -9.59375 3.773438 -9.503906 3.578125 -9.328125 C 3.378906 -9.160156 3.28125 -8.847656 3.28125 -8.390625 L 3.28125 -8.0625 L 4.703125 -8.0625 Z M 4.703125 -6.390625 "/></g></g><g style="fill:#000000;fill-opacity:1;"><g transform="translate(34.402354, 19.06332)"><path style="stroke:none" d="M 2.03125 -9.015625 C 1.675781 -9.015625 1.378906 -9.128906 1.140625 -9.359375 C 0.898438 -9.585938 0.78125 -9.875 0.78125 -10.21875 C 0.78125 -10.550781 0.898438 -10.832031 1.140625 -11.0625 C 1.378906 -11.289062 1.675781 -11.40625 2.03125 -11.40625 C 2.394531 -11.40625 2.691406 -11.289062 2.921875 -11.0625 C 3.160156 -10.832031 3.28125 -10.550781 3.28125 -10.21875 C 3.28125 -9.875 3.160156 -9.585938 2.921875 -9.359375 C 2.691406 -9.128906 2.394531 -9.015625 2.03125 -9.015625 Z M 3.046875 -8.0625 L 3.046875 0 L 1 0 L 1 -8.0625 Z M 3.046875 -8.0625 "/></g></g><g style="fill:#000000;fill-opacity:1;"><g transform="translate(38.447522, 19.06332)"><path style="stroke:none" d="M 4.09375 0.125 C 3.425781 0.125 2.832031 0.0078125 2.3125 -0.21875 C 1.789062 -0.457031 1.375 -0.78125 1.0625 -1.1875 C 0.757812 -1.59375 0.59375 -2.046875 0.5625 -2.546875 L 2.625 -2.546875 C 2.65625 -2.234375 2.804688 -1.972656 3.078125 -1.765625 C 3.347656 -1.566406 3.679688 -1.46875 4.078125 -1.46875 C 4.460938 -1.46875 4.765625 -1.546875 4.984375 -1.703125 C 5.203125 -1.859375 5.3125 -2.054688 5.3125 -2.296875 C 5.3125 -2.554688 5.175781 -2.75 4.90625 -2.875 C 4.644531 -3.007812 4.222656 -3.15625 3.640625 -3.3125 C 3.035156 -3.457031 2.539062 -3.609375 2.15625 -3.765625 C 1.769531 -3.921875 1.4375 -4.15625 1.15625 -4.46875 C 0.882812 -4.789062 0.75 -5.226562 0.75 -5.78125 C 0.75 -6.21875 0.878906 -6.617188 1.140625 -6.984375 C 1.398438 -7.359375 1.769531 -7.648438 2.25 -7.859375 C 2.726562 -8.078125 3.289062 -8.1875 3.9375 -8.1875 C 4.894531 -8.1875 5.660156 -7.945312 6.234375 -7.46875 C 6.804688 -6.988281 7.125 -6.34375 7.1875 -5.53125 L 5.234375 -5.53125 C 5.203125 -5.851562 5.066406 -6.109375 4.828125 -6.296875 C 4.597656 -6.484375 4.285156 -6.578125 3.890625 -6.578125 C 3.515625 -6.578125 3.226562 -6.507812 3.03125 -6.375 C 2.832031 -6.238281 2.734375 -6.046875 2.734375 -5.796875 C 2.734375 -5.523438 2.867188 -5.316406 3.140625 -5.171875 C 3.410156 -5.035156 3.832031 -4.894531 4.40625 -4.75 C 4.988281 -4.601562 5.46875 -4.453125 5.84375 -4.296875 C 6.226562 -4.148438 6.554688 -3.910156 6.828125 -3.578125 C 7.109375 -3.253906 7.253906 -2.828125 7.265625 -2.296875 C 7.265625 -1.828125 7.132812 -1.410156 6.875 -1.046875 C 6.613281 -0.679688 6.242188 -0.394531 5.765625 -0.1875 C 5.285156 0.0195312 4.726562 0.125 4.09375 0.125 Z M 4.09375 0.125 "/></g></g><g style="fill:#000000;fill-opacity:1;"><g transform="translate(46.377793, 19.06332)"><path style="stroke:none" d="M 3.375 -6.390625 L 3.375 -2.484375 C 3.375 -2.210938 3.4375 -2.015625 3.5625 -1.890625 C 3.695312 -1.773438 3.921875 -1.71875 4.234375 -1.71875 L 5.171875 -1.71875 L 5.171875 0 L 3.90625 0 C 2.1875 0 1.328125 -0.832031 1.328125 -2.5 L 1.328125 -6.390625 L 0.359375 -6.390625 L 0.359375 -8.0625 L 1.328125 -8.0625 L 1.328125 -10.046875 L 3.375 -10.046875 L 3.375 -8.0625 L 5.171875 -8.0625 L 5.171875 -6.390625 Z M 3.375 -6.390625 "/></g></g></g></svg>